<?xml version="1.0" standalone="no"?><svg xmlns="http://www.w3.org/2000/svg" viewBox="0 0 1440 320"><path fill="#0099ff" fill-opacity="1" d="M0,128L20,154.7C40,181,80,235,120,256C160,277,200,267,240,250.7C280,235,320,213,360,218.7C400,224,440,256,480,256C520,256,560,224,600,218.7C640,213,680,235,720,250.7C760,267,800,277,840,277.3C880,277,920,267,960,261.3C1000,256,1040,256,1080,256C1120,256,1160,256,1200,245.3C1240,235,1280,213,1320,208C1360,203,1400,213,1420,218.7L1440,224L1440,320L1420,320C1400,320,1360,320,1320,320C1280,320,1240,320,1200,320C1160,320,1120,320,1080,320C1040,320,1000,320,960,320C920,320,880,320,840,320C800,320,760,320,720,320C680,320,640,320,600,320C560,320,520,320,480,320C440,320,400,320,360,320C320,320,280,320,240,320C200,320,160,320,120,320C80,320,40,320,20,320L0,320Z"></path></svg>